<?xml version="1.0" standalone="no"?>
<!DOCTYPE svg PUBLIC "-//W3C//DTD SVG 20010904//EN"
 "http://www.w3.org/TR/2001/REC-SVG-20010904/DTD/svg10.dtd">
<svg version="1.0" xmlns="http://www.w3.org/2000/svg"
 width="512.000000pt" height="512.000000pt" viewBox="0 0 512.000000 512.000000"
 preserveAspectRatio="xMidYMid meet">

<g transform="translate(0.000000,512.000000) scale(0.100000,-0.100000)"
fill="#000000" stroke="none">
<path d="M2993 4263 c-26 -5 -50 -26 -672 -573 -266 -234 -497 -434 -514 -445
-30 -19 -54 -20 -482 -26 -421 -5 -455 -7 -530 -27 -450 -123 -766 -561 -792
-1098 -24 -493 224 -958 611 -1149 149 -73 212 -86 433 -92 l191 -6 26 26 c32
32 34 79 6 107 -18 18 -33 20 -137 20 -65 0 -157 5 -206 10 -523 60 -874 661
-747 1278 77 374 333 672 647 753 69 17 113 19 467 19 424 0 492 6 570 44 32
16 187 146 412 343 198 175 452 398 564 497 l203 178 55 -56 56 -55 -20 -23
c-31 -34 -594 -677 -631 -721 -62 -71 -34 -172 55 -197 23 -6 230 -10 546 -10
l509 0 -44 -32 c-61 -43 -171 -158 -223 -231 -98 -140 -168 -305 -207 -487
-31 -148 -32 -401 -1 -545 30 -140 55 -214 113 -332 78 -159 186 -293 312
-389 l59 -44 -1046 0 c-1033 0 -1046 0 -1066 -20 -28 -28 -26 -75 5 -106 l25
-24 1362 2 1363 3 88 28 c382 119 646 438 744 898 25 118 25 391 -1 509 -27
128 -63 235 -111 332 -144 291 -376 491 -660 570 -79 22 -89 22 -867 26 -434
1 -788 5 -788 8 0 3 134 156 297 342 164 185 306 353 315 372 40 77 16 149
-79 242 -79 77 -129 97 -210 81z m1293 -1218 c252 -57 492 -288 602 -578 202
-536 2 -1158 -443 -1382 -123 -62 -196 -79 -330 -79 -163 0 -296 43 -428 138
-370 264 -520 830 -346 1309 83 230 246 426 438 526 166 86 325 106 507 66z"/>
<path d="M3971 2754 c-116 -31 -241 -118 -241 -168 0 -34 41 -76 73 -76 13 0
42 12 63 27 115 78 254 104 365 68 286 -91 442 -470 329 -800 -124 -361 -505
-475 -746 -223 -114 119 -163 237 -171 413 -5 107 1 161 28 258 12 42 11 52
-2 75 -8 15 -27 31 -42 37 -81 28 -127 -76 -135 -301 -5 -170 13 -259 82 -399
57 -113 118 -190 204 -254 242 -182 555 -149 767 81 76 81 120 155 156 260 77
225 63 446 -41 656 -43 86 -65 117 -129 180 -85 85 -179 141 -276 167 -73 19
-212 18 -284 -1z"/>
<path d="M4046 2320 c-117 -35 -193 -162 -184 -308 7 -119 60 -205 153 -248
130 -61 272 -2 337 141 30 68 31 190 2 256 -59 128 -187 195 -308 159z m114
-155 c57 -29 83 -119 55 -190 -20 -54 -57 -85 -99 -85 -109 1 -145 194 -51
268 33 26 55 27 95 7z"/>
<path d="M1875 2889 c-51 -29 -60 -85 -20 -124 l24 -25 525 0 525 0 27 23 c35
30 37 79 5 110 l-22 22 -522 2 c-367 2 -528 -1 -542 -8z"/>
<path d="M680 2480 c-28 -28 -26 -81 3 -108 22 -21 32 -22 204 -22 100 0 189
3 198 6 24 10 46 60 39 89 -13 50 -33 55 -236 55 -175 0 -189 -1 -208 -20z"/>
<path d="M1353 2485 c-11 -8 -24 -26 -27 -40 -7 -29 15 -79 39 -89 9 -3 101
-6 204 -6 175 0 190 1 215 21 34 27 36 77 3 107 -22 21 -32 22 -218 22 -155 0
-199 -3 -216 -15z"/>
<path d="M1546 2089 c-34 -27 -36 -77 -3 -107 l23 -22 532 0 c519 0 533 1 552
20 28 28 26 81 -3 108 l-23 22 -526 0 c-516 0 -526 0 -552 -21z"/>
<path d="M475 1695 c-30 -29 -32 -74 -6 -106 l19 -24 537 0 537 0 19 24 c28
35 25 85 -7 110 -26 21 -36 21 -551 21 l-524 0 -24 -25z"/>
<path d="M2378 1323 l-387 -3 -21 -27 c-26 -33 -21 -79 11 -105 20 -17 61 -18
551 -18 l529 0 24 25 c27 26 32 70 12 96 -26 34 -54 39 -194 37 -76 -2 -312
-4 -525 -5z"/>
</g>
</svg>
